# xmcd CD database file
#
# Track frame offsets:
#	150
#	43417
#	91988
#	146014
#	187274
#	248032
#	278736
#
# Disc length: 4131 seconds
#
# Revision: 0
# Processed by: cddbd v1.5.2PL0 Copyright (c) Steve Scherf et al.
# Submitted via: CDex 1.51
#
DISCID=68102107
DTITLE=Various Artist - Heart of Compassion
DYEAR=2006
DGENRE=New Age
TTITLE0=Ashana - Ave Maria (The Angelic Salutation)
TTITLE1=Thomas Barquee - Gloria
TTITLE2=Snatam Kaur - Aadays Tisai Aadays
TTITLE3=Thomas Barquee - Lila
TTITLE4=Snatam Kaur - Ra Ma Da Sa
TTITLE5=Thomas Barquee - Lux
TTITLE6=Ahana - When All is Forgiven
EXTD=YEAR: 2006
EXTT0=
EXTT1=
EXTT2=
EXTT3=
EXTT4=
EXTT5=
EXTT6=
PLAYORDER=
